Coordinates
version=1
nRows=10
nColumns=40
inDegrees=yes

Units are S.I. units (second, meters, Newtons, ...)
Angles are in degrees.

endheader
time	pelvis_tilt	pelvis_list	pelvis_rotation	pelvis_tx	pelvis_ty	pelvis_tz	hip_flexion_r	hip_adduction_r	hip_rotation_r	knee_angle_r	knee_angle_r_beta	ankle_angle_r	subtalar_angle_r	mtp_angle_r	hip_flexion_l	hip_adduction_l	hip_rotation_l	knee_angle_l	knee_angle_l_beta	ankle_angle_l	subtalar_angle_l	mtp_angle_l	lumbar_extension	lumbar_bending	lumbar_rotation	arm_flex_r	arm_add_r	arm_rot_r	elbow_flex_r	pro_sup_r	wrist_flex_r	wrist_dev_r	arm_flex_l	arm_add_l	arm_rot_l	elbow_flex_l	pro_sup_l	wrist_flex_l	wrist_dev_l
      3.64000000	     -3.40913211	     -3.87038724	      9.31657318	      1.01406761	      0.92009582	      0.47681805	     -2.46737168	      1.23167118	    -17.90085847	     15.45700839	     15.45700839	     18.21753707	     -6.95672960	     -2.52438342	     26.59057929	     -4.60539826	     -1.68052392	     24.69521510	     24.69521510	      5.23530842	    -11.52526784	     -1.47122945	     -7.26531096	     -0.63006117	      4.49557686	     49.53686990	    -19.10854895	    -12.69401529	     83.01742934	     44.62270075	      0.00000000	      0.00000000	     -6.25457504	     -9.16045466	     -6.95567355	     36.07789607	     45.87901650	      0.00000000	      0.00000000
      3.65914286	     -3.28295805	     -3.72257361	      9.13737399	      1.01469712	      0.92112000	      0.47267655	     -1.97616523	      0.55047999	    -17.46873615	     17.51362204	     17.51362204	     17.88267582	     -8.25165930	     -2.49131584	     25.95693064	     -4.38227651	     -2.04974124	     24.84178382	     24.84178382	      6.04251438	    -11.23992340	     -1.61605113	     -7.32276736	     -0.82856790	      4.38280543	     49.41051566	    -18.74107638	    -12.54963100	     83.03632489	     44.62457622	      0.00000000	      0.00000000	     -5.21925372	     -9.33336722	     -7.22661832	     36.07993263	     45.92794724	      0.00000000	      0.00000000
      3.67828571	     -3.24600025	     -3.59989848	      8.93674418	      1.01501332	      0.92208566	      0.46866116	     -1.00764256	     -0.16476229	    -16.90822727	     20.18291472	     20.18291472	     17.37494599	    -10.05856914	     -2.53322137	     25.37975229	     -4.18618189	     -2.47890134	     24.87615152	     24.87615152	      6.82153639	    -10.80815562	     -1.71109312	     -7.29603739	     -1.01397960	      4.20848668	     49.10239932	    -18.27776482	    -12.44334411	     83.01429934	     44.63190930	      0.00000000	      0.00000000	     -4.04880880	     -9.48781056	     -7.55903101	     35.82729835	     45.98551120	      0.00000000	      0.00000000
      3.69742857	     -3.08632554	     -3.49524870	      8.75378414	      1.01524907	      0.92319072	      0.46474155	     -0.00396551	     -0.80876684	    -16.26292243	     23.06647126	     23.06647126	     16.60553209	    -12.24693583	     -2.68714395	     24.69593913	     -4.03604874	     -2.93990555	     24.94950554	     24.94950554	      7.76792506	    -10.26545649	     -1.38257156	     -7.36684718	     -1.10793524	      4.12491644	     48.60290570	    -17.86468133	    -12.66318423	     83.03989453	     44.68834656	      0.00000000	      0.00000000	     -2.25595482	     -9.47800251	     -8.53404206	     34.36987762	     46.12746696	      0.00000000	      0.00000000
      3.71657143	     -2.86345951	     -3.28413518	      8.56882201	      1.01538432	      0.92430855	      0.46068948	      1.15546059	     -1.72241655	    -16.11368295	     26.41618818	     26.41618818	     15.85007676	    -13.80051679	     -3.00870264	     23.79698254	     -3.72817781	     -3.33928394	     24.75188193	     24.75188193	      8.31591821	    -10.05712711	     -1.61608465	     -7.55797515	     -1.26635991	      3.79992782	     48.14631119	    -17.34198053	    -12.55276601	     82.99986162	     44.69114879	      0.00000000	      0.00000000	     -1.15689087	     -9.67740019	     -8.54652368	     34.42658990	     46.14390512	      0.00000000	      0.00000000
      3.73571429	     -2.76263048	     -3.14287765	      8.39789662	      1.01529550	      0.92509405	      0.45676484	      2.64800427	     -2.53832073	    -15.85109562	     29.99590217	     29.99590217	     14.74620475	    -15.89719749	     -3.18048403	     23.12878646	     -3.44886740	     -3.60984228	     24.65830571	     24.65830571	      8.73601587	    -10.04729784	     -1.92303824	     -7.53325743	     -1.31738958	      3.54618612	     47.33542642	    -16.75027482	    -12.70339341	     82.82279841	     44.71574477	      0.00000000	      0.00000000	      0.22032077	     -9.90635681	     -8.38921218	     33.80959568	     46.13980074	      0.00000000	      0.00000000
      3.75485714	     -2.50047262	     -2.86161183	      8.16881822	      1.01519081	      0.92601730	      0.45286729	      4.05576607	     -3.60456424	    -15.86916314	     33.76576287	     33.76576287	     13.65255380	    -17.32184526	     -3.28677634	     22.16691047	     -3.05977298	     -4.01231687	     24.39861679	     24.39861679	      9.15258105	     -9.96128831	     -2.13771252	     -7.77250318	     -1.49900276	      3.18380216	     46.55007437	    -16.23017195	    -12.68917983	     82.65183324	     44.72386720	      0.00000000	      0.00000000	      1.49072209	    -10.13753526	     -8.23814735	     33.70570422	     46.13785604	      0.00000000	      0.00000000
      3.77400000	     -2.27901627	     -2.57436065	      7.93576666	      1.01501643	      0.92671272	      0.44898199	      5.56986087	     -4.77651448	    -16.11356871	     37.62104010	     37.62104010	     12.50379985	    -18.35179041	     -3.04369331	     21.30348214	     -2.62297564	     -4.30056479	     24.21498405	     24.21498405	      9.50898536	    -10.08303019	     -2.34591770	     -7.90897478	     -1.63815784	      2.85612341	     45.49429862	    -15.69338324	    -12.73784578	     82.34736886	     44.73685233	      0.00000000	      0.00000000	      2.79244562	    -10.35630768	     -8.00650705	     33.50175452	     46.12595712	      0.00000000	      0.00000000
      3.79314286	     -2.12475144	     -2.27923542	      7.67382867	      1.01467467	      0.92728010	      0.44518123	      7.40401081	     -5.95839348	    -16.17907722	     41.89042037	     41.89042037	     12.71269216	    -18.75027464	      2.00775459	     20.43013126	     -2.03180869	     -4.13702785	     23.79382251	     23.79382251	      9.30695904	    -11.19572914	     -2.98035639	     -7.90639420	     -1.73622084	      3.17144257	     43.86791638	    -15.43002688	    -14.00300758	     82.13400091	     44.82226260	      0.00000000	      0.00000000	      5.26131350	    -10.52001765	     -6.18477328	     30.94517839	     45.91721029	      0.00000000	      0.00000000
      3.81228571	     -1.90639580	     -1.93166277	      7.33692336	      1.01442214	      0.92778530	      0.44150646	      8.96619201	     -7.32147453	    -16.54611367	     45.66259307	     45.66259307	     11.39087701	    -19.15559641	      2.92975254	     19.56079623	     -1.52838503	     -4.43216726	     23.58389230	     23.58389230	      9.61260135	    -11.37332612	     -3.12608563	     -8.03700046	     -1.89252719	      2.90244646	     42.44511062	    -15.00855500	    -13.91281426	     81.66524200	     44.83520865	      0.00000000	      0.00000000	      6.35038463	    -10.71171326	     -5.94864439	     31.20702346	     45.90197769	      0.00000000	      0.00000000
